<svg width="345" height="91" viewBox="0 0 345 91" fill="none" xmlns="http://www.w3.org/2000/svg">
<path d="M39.9393 28.4897V1.5441H50.2637V70.2235H39.9393V62.784C36.1356 68.2276 30.5205 70.9493 23.1847 70.9493C16.9357 70.9493 11.5018 68.5905 6.88296 63.8727C2.26413 59.155 0 52.9856 0 45.3647C0 37.7437 2.3547 31.5743 7.15466 27.038C11.8641 22.5018 17.5697 20.2336 24.0904 20.2336C30.6111 20.2336 35.8639 22.9554 39.9393 28.4897ZM10.3244 45.8183C10.3244 50.536 11.8641 54.3465 14.8527 57.2497C17.8414 60.2437 21.3734 61.6953 25.4489 61.6953C29.5243 61.6953 32.9658 60.2437 35.7733 57.2497C38.5808 54.2558 40.0299 50.4453 40.0299 45.7276C40.0299 41.0098 38.5808 37.1086 35.7733 33.9332C32.9658 30.7578 29.4337 29.2155 25.3583 29.2155C21.1923 29.2155 17.6602 30.7578 14.7621 33.9332C11.8641 37.1086 10.3244 41.1005 10.3244 45.8183Z" fill="#EF802E"/>
<path d="M65.841 11.161C64.5731 9.89088 63.9391 8.34854 63.9391 6.53403C63.9391 4.71951 64.5731 3.17717 65.841 1.90701C67.1089 0.63685 68.6485 0.00177002 70.4598 0.00177002C72.2711 0.00177002 73.8107 0.63685 75.0787 1.90701C76.3466 3.17717 76.9805 4.71951 76.9805 6.53403C76.9805 8.34854 76.3466 9.89088 75.0787 11.161C73.8107 12.4312 72.2711 13.0663 70.4598 13.0663C68.6485 13.0663 67.1089 12.4312 65.841 11.161ZM75.5315 70.1328H65.207V20.9594H75.5315V70.1328Z" fill="#EF802E"/>
<path d="M135.939 20.9594V63.8727C135.939 72.5824 133.584 79.1147 128.874 83.4695C124.165 87.8244 118.097 90.0018 110.761 90.0018C103.426 90.0018 96.7237 87.7336 90.7464 83.1066L95.637 75.2135C100.437 78.8425 105.327 80.657 110.218 80.657C115.109 80.657 119.003 79.3869 121.901 76.8465C124.799 74.3062 126.157 70.3143 126.157 64.6893V58.4292C124.618 61.3324 122.444 63.6006 119.546 65.3244C116.648 67.0482 113.478 67.9554 109.856 67.9554C103.335 67.9554 97.9917 65.6873 93.8257 61.151C89.6597 56.6147 87.5767 50.899 87.5767 44.0945C87.5767 37.2901 89.6597 31.6651 93.8257 27.0381C97.9917 22.5018 103.335 20.2336 109.856 20.2336C116.376 20.2336 121.629 22.9554 125.705 28.3082V20.9594H135.939ZM97.6294 43.7316C97.6294 47.7236 98.8973 51.1711 101.343 54.1651C103.878 57.0683 107.229 58.5199 111.395 58.5199C115.652 58.5199 119.003 57.0683 121.629 54.2558C124.256 51.4433 125.524 47.905 125.524 43.6409C125.524 39.3768 124.165 35.8385 121.539 32.9353C118.912 30.032 115.471 28.5804 111.305 28.5804C107.139 28.5804 103.788 30.1228 101.252 33.1167C98.8973 36.1107 97.6294 39.649 97.6294 43.7316Z" fill="#EF802E"/>
<path d="M232.843 5.44531H247.243V70.1328H232.843V44.7296H207.123V70.1328H192.723V5.44531H207.123V32.4816H232.843V5.44531Z" fill="#244688"/>
<path d="M315.53 26.9473C315.53 37.2901 311.454 44.0038 303.213 46.9977L319.605 70.1328H301.854L287.545 49.538H277.583V70.1328H263.183V5.44531H287.635C297.688 5.44531 304.843 7.1691 309.099 10.526C313.356 13.9735 315.53 19.4171 315.53 26.9473ZM288.36 17.8747H277.583V36.9272H288.088C292.979 36.9272 296.33 36.1106 298.141 34.5683C299.952 32.9352 300.858 30.4856 300.858 26.9473C300.858 23.409 299.952 21.1409 298.05 19.78C296.239 18.5098 292.979 17.8747 288.36 17.8747Z" fill="#244688"/>
<path d="M330.292 5.44531H344.692V70.1328H330.292V5.44531Z" fill="#244688"/>
<path d="M161.75 19.8707V70.1328H151.244V30.3042C151.244 30.3042 151.878 21.0501 161.75 19.8707Z" fill="#EF802E"/>
<path d="M166.459 19.8707V70.1328H176.965V30.3042C176.965 30.3042 176.331 21.0501 166.459 19.8707Z" fill="#EF802E"/>
<path d="M155.32 12.9756C158.871 12.9756 161.75 10.0916 161.75 6.53403C161.75 2.97647 158.871 0.0924988 155.32 0.0924988C151.768 0.0924988 148.889 2.97647 148.889 6.53403C148.889 10.0916 151.768 12.9756 155.32 12.9756Z" fill="#EF802E"/>
<path d="M172.889 12.9756C176.44 12.9756 179.319 10.0916 179.319 6.53403C179.319 2.97647 176.44 0.0924988 172.889 0.0924988C169.338 0.0924988 166.459 2.97647 166.459 6.53403C166.459 10.0916 169.338 12.9756 172.889 12.9756Z" fill="#EF802E"/>
</svg>
